<mxfile host="app.diagrams.net" agent="Mozilla/5.0 (Macintosh; Intel Mac OS X 10_15_7) AppleWebKit/537.36 (KHTML, like Gecko) Chrome/126.0.0.0 Safari/537.36" version="28.1.0">
  <diagram name="第 1 页" id="QBfmjMHsHBRAcdPXaFrD">
    <mxGraphModel dx="503" dy="236" grid="1" gridSize="10" guides="1" tooltips="1" connect="1" arrows="1" fold="1" page="1" pageScale="1" pageWidth="827" pageHeight="1169" math="0" shadow="0">
      <root>
        <mxCell id="0" />
        <mxCell id="1" parent="0" />
        <mxCell id="l6EJtao8Zm6sJSQqBp27-3" value="" style="edgeStyle=orthogonalEdgeStyle;rounded=0;orthogonalLoop=1;jettySize=auto;html=1;" edge="1" parent="1" source="l6EJtao8Zm6sJSQqBp27-1" target="l6EJtao8Zm6sJSQqBp27-2">
          <mxGeometry relative="1" as="geometry" />
        </mxCell>
        <mxCell id="l6EJtao8Zm6sJSQqBp27-1" value="从N(0,1)随机采样噪声&lt;div&gt;Noise&lt;/div&gt;" style="rounded=0;whiteSpace=wrap;html=1;" vertex="1" parent="1">
          <mxGeometry x="80" y="130" width="120" height="40" as="geometry" />
        </mxCell>
        <mxCell id="l6EJtao8Zm6sJSQqBp27-2" value="从N(0,1)随机采样噪声&lt;div&gt;Noise&lt;/div&gt;" style="rounded=0;whiteSpace=wrap;html=1;" vertex="1" parent="1">
          <mxGeometry x="240" y="130" width="120" height="40" as="geometry" />
        </mxCell>
        <mxCell id="l6EJtao8Zm6sJSQqBp27-4" value="" style="rounded=0;whiteSpace=wrap;html=1;" vertex="1" parent="1">
          <mxGeometry x="80" y="50" width="120" height="60" as="geometry" />
        </mxCell>
      </root>
    </mxGraphModel>
  </diagram>
</mxfile>
